<svg width="179" height="45" viewBox="0 0 179 45" fill="none" xmlns="http://www.w3.org/2000/svg">
<rect width="45" height="45" fill="#F54748"/>
<path d="M11.43 11.02V13.61H15.966V15.43H11.43V19H9.162V9.2H16.568V11.02H11.43Z" fill="white"/>
<path d="M33.616 16.9H29.066L28.198 19H25.874L30.242 9.2H32.482L36.864 19H34.484L33.616 16.9ZM32.902 15.178L31.348 11.426L29.794 15.178H32.902Z" fill="white"/>
<path d="M30.908 37.168C29.8907 37.168 28.9713 36.9487 28.15 36.51C27.338 36.0713 26.6987 35.4693 26.232 34.704C25.7747 33.9293 25.546 33.0613 25.546 32.1C25.546 31.1387 25.7747 30.2753 26.232 29.51C26.6987 28.7353 27.338 28.1287 28.15 27.69C28.9713 27.2513 29.8907 27.032 30.908 27.032C31.9253 27.032 32.84 27.2513 33.652 27.69C34.464 28.1287 35.1033 28.7353 35.57 29.51C36.0367 30.2753 36.27 31.1387 36.27 32.1C36.27 33.0613 36.0367 33.9293 35.57 34.704C35.1033 35.4693 34.464 36.0713 33.652 36.51C32.84 36.9487 31.9253 37.168 30.908 37.168ZM30.908 35.236C31.4867 35.236 32.0093 35.1053 32.476 34.844C32.9427 34.5733 33.3067 34.2 33.568 33.724C33.8387 33.248 33.974 32.7067 33.974 32.1C33.974 31.4933 33.8387 30.952 33.568 30.476C33.3067 30 32.9427 29.6313 32.476 29.37C32.0093 29.0993 31.4867 28.964 30.908 28.964C30.3293 28.964 29.8067 29.0993 29.34 29.37C28.8733 29.6313 28.5047 30 28.234 30.476C27.9727 30.952 27.842 31.4933 27.842 32.1C27.842 32.7067 27.9727 33.248 28.234 33.724C28.5047 34.2 28.8733 34.5733 29.34 34.844C29.8067 35.1053 30.3293 35.236 30.908 35.236Z" fill="white"/>
<path d="M11.43 29.02V31.61H15.966V33.43H11.43V37H9.162V27.2H16.568V29.02H11.43Z" fill="white"/>
<path d="M63.376 15.816V20.928H71.488V23.568H63.376V30H60.256V13.2H72.52V15.816H63.376ZM79.7468 17.04C81.6348 17.04 83.0748 17.496 84.0668 18.408C85.0748 19.304 85.5788 20.664 85.5788 22.488V30H82.7468V28.44C82.3788 29 81.8508 29.432 81.1628 29.736C80.4908 30.024 79.6748 30.168 78.7148 30.168C77.7548 30.168 76.9148 30.008 76.1948 29.688C75.4748 29.352 74.9148 28.896 74.5148 28.32C74.1308 27.728 73.9388 27.064 73.9388 26.328C73.9388 25.176 74.3628 24.256 75.2108 23.568C76.0748 22.864 77.4268 22.512 79.2668 22.512H82.5788V22.32C82.5788 21.424 82.3068 20.736 81.7628 20.256C81.2348 19.776 80.4428 19.536 79.3868 19.536C78.6668 19.536 77.9548 19.648 77.2508 19.872C76.5628 20.096 75.9788 20.408 75.4988 20.808L74.3228 18.624C74.9948 18.112 75.8028 17.72 76.7468 17.448C77.6908 17.176 78.6908 17.04 79.7468 17.04ZM79.3388 27.984C80.0908 27.984 80.7548 27.816 81.3308 27.48C81.9228 27.128 82.3388 26.632 82.5788 25.992V24.504H79.4828C77.7548 24.504 76.8908 25.072 76.8908 26.208C76.8908 26.752 77.1068 27.184 77.5388 27.504C77.9708 27.824 78.5708 27.984 79.3388 27.984ZM93.3889 30.168C92.3489 30.168 91.3329 30.032 90.3409 29.76C89.3489 29.488 88.5569 29.144 87.9649 28.728L89.1169 26.448C89.6929 26.832 90.3809 27.144 91.1809 27.384C91.9969 27.608 92.7969 27.72 93.5809 27.72C95.3729 27.72 96.2689 27.248 96.2689 26.304C96.2689 25.856 96.0369 25.544 95.5729 25.368C95.1249 25.192 94.3969 25.024 93.3889 24.864C92.3329 24.704 91.4689 24.52 90.7969 24.312C90.1409 24.104 89.5649 23.744 89.0689 23.232C88.5889 22.704 88.3489 21.976 88.3489 21.048C88.3489 19.832 88.8529 18.864 89.8609 18.144C90.8849 17.408 92.2609 17.04 93.9889 17.04C94.8689 17.04 95.7489 17.144 96.6289 17.352C97.5089 17.544 98.2289 17.808 98.7889 18.144L97.6369 20.424C96.5489 19.784 95.3249 19.464 93.9649 19.464C93.0849 19.464 92.4129 19.6 91.9489 19.872C91.5009 20.128 91.2769 20.472 91.2769 20.904C91.2769 21.384 91.5169 21.728 91.9969 21.936C92.4929 22.128 93.2529 22.312 94.2769 22.488C95.3009 22.648 96.1409 22.832 96.7969 23.04C97.4529 23.248 98.0129 23.6 98.4769 24.096C98.9569 24.592 99.1969 25.296 99.1969 26.208C99.1969 27.408 98.6769 28.368 97.6369 29.088C96.5969 29.808 95.1809 30.168 93.3889 30.168ZM109.485 29.304C109.133 29.592 108.701 29.808 108.189 29.952C107.693 30.096 107.165 30.168 106.605 30.168C105.197 30.168 104.109 29.8 103.34 29.064C102.573 28.328 102.189 27.256 102.189 25.848V19.68H100.077V17.28H102.189V14.352H105.189V17.28H108.621V19.68H105.189V25.776C105.189 26.4 105.341 26.88 105.645 27.216C105.949 27.536 106.389 27.696 106.965 27.696C107.637 27.696 108.197 27.52 108.645 27.168L109.485 29.304ZM121.993 15.816V20.928H130.105V23.568H121.993V30H118.873V13.2H131.137V15.816H121.993ZM139.275 30.168C137.979 30.168 136.811 29.888 135.771 29.328C134.731 28.768 133.915 27.992 133.323 27C132.747 25.992 132.459 24.856 132.459 23.592C132.459 22.328 132.747 21.2 133.323 20.208C133.915 19.216 134.731 18.44 135.771 17.88C136.811 17.32 137.979 17.04 139.275 17.04C140.587 17.04 141.763 17.32 142.803 17.88C143.843 18.44 144.651 19.216 145.227 20.208C145.819 21.2 146.115 22.328 146.115 23.592C146.115 24.856 145.819 25.992 145.227 27C144.651 27.992 143.843 28.768 142.803 29.328C141.763 29.888 140.587 30.168 139.275 30.168ZM139.275 27.6C140.379 27.6 141.291 27.232 142.011 26.496C142.731 25.76 143.091 24.792 143.091 23.592C143.091 22.392 142.731 21.424 142.011 20.688C141.291 19.952 140.379 19.584 139.275 19.584C138.171 19.584 137.259 19.952 136.539 20.688C135.835 21.424 135.483 22.392 135.483 23.592C135.483 24.792 135.835 25.76 136.539 26.496C137.259 27.232 138.171 27.6 139.275 27.6ZM154.744 30.168C153.448 30.168 152.28 29.888 151.24 29.328C150.2 28.768 149.384 27.992 148.792 27C148.216 25.992 147.928 24.856 147.928 23.592C147.928 22.328 148.216 21.2 148.792 20.208C149.384 19.216 150.2 18.44 151.24 17.88C152.28 17.32 153.448 17.04 154.744 17.04C156.056 17.04 157.232 17.32 158.272 17.88C159.312 18.44 160.12 19.216 160.696 20.208C161.288 21.2 161.584 22.328 161.584 23.592C161.584 24.856 161.288 25.992 160.696 27C160.12 27.992 159.312 28.768 158.272 29.328C157.232 29.888 156.056 30.168 154.744 30.168ZM154.744 27.6C155.848 27.6 156.76 27.232 157.48 26.496C158.2 25.76 158.56 24.792 158.56 23.592C158.56 22.392 158.2 21.424 157.48 20.688C156.76 19.952 155.848 19.584 154.744 19.584C153.64 19.584 152.728 19.952 152.008 20.688C151.304 21.424 150.952 22.392 150.952 23.592C150.952 24.792 151.304 25.76 152.008 26.496C152.728 27.232 153.64 27.6 154.744 27.6ZM177.004 12.192V30H174.124V28.344C173.628 28.952 173.012 29.408 172.276 29.712C171.556 30.016 170.756 30.168 169.876 30.168C168.644 30.168 167.532 29.896 166.54 29.352C165.564 28.808 164.796 28.04 164.236 27.048C163.676 26.04 163.396 24.888 163.396 23.592C163.396 22.296 163.676 21.152 164.236 20.16C164.796 19.168 165.564 18.4 166.54 17.856C167.532 17.312 168.644 17.04 169.876 17.04C170.724 17.04 171.5 17.184 172.204 17.472C172.908 17.76 173.508 18.192 174.004 18.768V12.192H177.004ZM170.236 27.6C170.956 27.6 171.604 27.44 172.18 27.12C172.756 26.784 173.212 26.312 173.548 25.704C173.884 25.096 174.052 24.392 174.052 23.592C174.052 22.792 173.884 22.088 173.548 21.48C173.212 20.872 172.756 20.408 172.18 20.088C171.604 19.752 170.956 19.584 170.236 19.584C169.516 19.584 168.868 19.752 168.292 20.088C167.716 20.408 167.26 20.872 166.924 21.48C166.588 22.088 166.42 22.792 166.42 23.592C166.42 24.392 166.588 25.096 166.924 25.704C167.26 26.312 167.716 26.784 168.292 27.12C168.868 27.44 169.516 27.6 170.236 27.6Z" fill="#353535"/>
</svg>
